<?xml version="1.0" encoding="UTF-8" standalone="no"?>
<!DOCTYPE svg PUBLIC "-//W3C//DTD SVG 1.1//EN" "http://www.w3.org/Graphics/SVG/1.1/DTD/svg11.dtd">
<svg width="100%" height="100%" viewBox="0 0 1592 1312" version="1.1" xmlns="http://www.w3.org/2000/svg" xmlns:xlink="http://www.w3.org/1999/xlink" xml:space="preserve" xmlns:serif="http://www.serif.com/" style="fill-rule:evenodd;clip-rule:evenodd;stroke-linejoin:round;stroke-miterlimit:2;">
    <g transform="matrix(1,0,0,1,-5662.612534,-1427.671708)">
        <g transform="matrix(0.8,0,0,0.8,4793.388334,416.666667)">
            <g transform="matrix(1.525593,0,0,1.525593,-919.969243,-1685.485565)">
                <g transform="matrix(2582.685753,0,0,2582.685753,1261,2966)">
                    <path transform="translate(0.2735,-0.192) scale(0.90) translate(-0.2735,0.192)" d="M0.462,-0.335L0.451,-0.335C0.448,-0.335 0.443,-0.335 0.437,-0.335C0.43,-0.336 0.423,-0.336 0.414,-0.337C0.404,-0.337 0.393,-0.338 0.379,-0.339C0.378,-0.328 0.376,-0.317 0.375,-0.303C0.374,-0.29 0.373,-0.275 0.373,-0.258C0.372,-0.241 0.371,-0.222 0.371,-0.2C0.37,-0.178 0.37,-0.153 0.37,-0.126C0.37,-0.106 0.371,-0.09 0.374,-0.076C0.376,-0.062 0.379,-0.051 0.384,-0.043C0.389,-0.034 0.396,-0.028 0.404,-0.024C0.412,-0.02 0.421,-0.018 0.433,-0.018C0.456,-0.018 0.477,-0.031 0.494,-0.058L0.509,-0.049C0.504,-0.038 0.498,-0.029 0.49,-0.021C0.482,-0.013 0.474,-0.006 0.465,-0C0.455,0.005 0.446,0.009 0.435,0.012C0.425,0.015 0.415,0.016 0.405,0.016C0.384,0.016 0.367,0.013 0.354,0.008C0.341,0.003 0.33,-0.006 0.322,-0.018C0.314,-0.03 0.309,-0.045 0.306,-0.064C0.302,-0.082 0.301,-0.105 0.301,-0.131C0.301,-0.16 0.301,-0.185 0.302,-0.206C0.302,-0.228 0.303,-0.246 0.304,-0.263C0.305,-0.279 0.306,-0.293 0.307,-0.305C0.308,-0.318 0.309,-0.329 0.31,-0.339L0.198,-0.339L0.19,-0.229C0.189,-0.217 0.188,-0.205 0.186,-0.191C0.184,-0.177 0.182,-0.163 0.18,-0.149C0.178,-0.135 0.175,-0.122 0.173,-0.108C0.17,-0.095 0.168,-0.083 0.165,-0.071C0.162,-0.06 0.159,-0.05 0.157,-0.041C0.154,-0.033 0.152,-0.026 0.149,-0.022C0.142,-0.007 0.134,0.002 0.127,0.007C0.119,0.011 0.112,0.014 0.104,0.014C0.092,0.014 0.082,0.011 0.073,0.006C0.064,0.001 0.06,-0.007 0.06,-0.017C0.06,-0.021 0.06,-0.025 0.061,-0.029C0.062,-0.033 0.063,-0.037 0.065,-0.041C0.067,-0.046 0.07,-0.051 0.073,-0.056C0.077,-0.061 0.082,-0.068 0.089,-0.075C0.098,-0.086 0.106,-0.098 0.113,-0.113C0.12,-0.127 0.125,-0.142 0.13,-0.155C0.132,-0.163 0.135,-0.171 0.137,-0.18C0.14,-0.189 0.142,-0.2 0.145,-0.214C0.147,-0.228 0.15,-0.244 0.152,-0.264C0.155,-0.284 0.157,-0.309 0.159,-0.339L0.14,-0.339C0.129,-0.339 0.119,-0.338 0.111,-0.336C0.102,-0.334 0.094,-0.331 0.086,-0.326C0.078,-0.321 0.07,-0.315 0.063,-0.306C0.056,-0.298 0.047,-0.287 0.039,-0.274L0.021,-0.274C0.031,-0.307 0.043,-0.333 0.059,-0.353C0.067,-0.363 0.075,-0.371 0.082,-0.377C0.09,-0.384 0.098,-0.388 0.107,-0.392C0.116,-0.395 0.126,-0.397 0.137,-0.398C0.149,-0.399 0.163,-0.4 0.179,-0.4L0.526,-0.4C0.512,-0.367 0.501,-0.348 0.495,-0.343C0.489,-0.338 0.478,-0.335 0.462,-0.335Z" style="fill:none;stroke:rgb(215,137,58);stroke-width:0.036;stroke-linecap:round;stroke-linejoin:round;fill-rule:nonzero;"/>
                </g>
            </g>
        </g>
    </g>
</svg>
