<?xml version="1.0" encoding="UTF-8" standalone="no"?>
<!DOCTYPE svg PUBLIC "-//W3C//DTD SVG 1.1//EN" "http://www.w3.org/Graphics/SVG/1.1/DTD/svg11.dtd">
<svg width="100%" height="100%" viewBox="0 0 11250 4167" version="1.1" xmlns="http://www.w3.org/2000/svg" xmlns:xlink="http://www.w3.org/1999/xlink" xml:space="preserve" xmlns:serif="http://www.serif.com/" style="fill-rule:evenodd;clip-rule:evenodd;stroke-linejoin:round;stroke-miterlimit:2;">
    <g transform="matrix(1,0,0,1,-4375,-0)">
        <g id="Wordmark" transform="matrix(0.9,0,0,1,-3500,0)">
            <rect x="8750" y="0" width="12500" height="4166.667" style="fill:none;"/>
            <clipPath id="_clip1">
                <rect x="8750" y="0" width="12500" height="4166.667"/>
            </clipPath>
            <g clip-path="url(#_clip1)">
                <g id="Background" transform="matrix(3.000267,0,0,1,8750,-0)">
                    <rect x="0" y="0" width="4166.667" height="4166.667" style="fill:rgb(252,240,216);"/>
                </g>
                <g id="Pie" transform="matrix(0.888889,0,0,0.8,9214.875927,416.666667)">
                    <g transform="matrix(13.992304,0,0,13.992304,-21074.561501,-22989.355028)">
                        <path d="M1650.826,1644.25C1652.025,1643.436 1653.442,1643 1654.891,1643C1656.341,1643 1657.757,1643.436 1658.957,1644.25L1675.858,1655.731C1676.712,1656.312 1677.68,1656.704 1678.697,1656.884C1679.714,1657.063 1680.757,1657.025 1681.759,1656.772L1701.568,1651.764C1702.973,1651.408 1704.453,1651.483 1705.815,1651.979C1707.178,1652.475 1708.359,1653.369 1709.208,1654.544L1721.163,1671.114C1721.768,1671.951 1722.542,1672.651 1723.437,1673.167C1724.331,1673.684 1725.325,1674.005 1726.352,1674.109L1746.679,1676.179C1748.121,1676.325 1749.486,1676.902 1750.597,1677.834C1751.707,1678.766 1752.512,1680.01 1752.907,1681.405L1758.475,1701.064C1758.756,1702.057 1759.245,1702.98 1759.909,1703.771C1760.573,1704.562 1761.396,1705.204 1762.326,1705.653L1780.72,1714.55C1782.025,1715.181 1783.11,1716.19 1783.835,1717.446C1784.56,1718.701 1784.891,1720.145 1784.785,1721.591L1783.293,1741.969C1783.218,1742.999 1783.361,1744.033 1783.714,1745.004C1784.068,1745.974 1784.622,1746.859 1785.342,1747.599L1799.584,1762.25C1800.594,1763.29 1801.269,1764.609 1801.521,1766.037C1801.772,1767.464 1801.59,1768.935 1800.996,1770.257L1792.624,1788.896C1792.201,1789.838 1791.982,1790.859 1791.982,1791.891C1791.982,1792.924 1792.201,1793.945 1792.624,1794.887L1800.996,1813.526C1801.59,1814.848 1801.772,1816.318 1801.521,1817.746C1801.269,1819.174 1800.594,1820.493 1799.584,1821.532L1785.342,1836.184C1784.622,1836.924 1784.068,1837.809 1783.714,1838.779C1783.361,1839.75 1783.218,1840.784 1783.293,1841.814L1784.785,1862.191C1784.891,1863.637 1784.56,1865.082 1783.835,1866.337C1783.11,1867.593 1782.025,1868.601 1780.72,1869.233L1762.326,1878.129C1761.396,1878.579 1760.573,1879.22 1759.909,1880.011C1759.245,1880.803 1758.756,1881.725 1758.475,1882.719L1752.907,1902.378C1752.512,1903.773 1751.707,1905.017 1750.597,1905.949C1749.486,1906.881 1748.121,1907.457 1746.679,1907.604L1726.352,1909.673C1725.325,1909.778 1724.331,1910.099 1723.437,1910.615C1722.542,1911.132 1721.768,1911.832 1721.163,1912.669L1709.208,1929.238C1708.359,1930.414 1707.178,1931.308 1705.815,1931.804C1704.453,1932.299 1702.973,1932.374 1701.568,1932.019L1681.759,1927.011C1680.757,1926.758 1679.714,1926.72 1678.697,1926.899C1677.68,1927.079 1676.712,1927.471 1675.858,1928.052L1658.957,1939.533C1657.757,1940.347 1656.341,1940.783 1654.891,1940.783C1653.442,1940.783 1652.025,1940.347 1650.826,1939.533L1633.925,1928.052C1633.07,1927.471 1632.103,1927.079 1631.086,1926.899C1630.069,1926.72 1629.025,1926.758 1628.024,1927.011L1608.215,1932.019C1606.81,1932.374 1605.33,1932.299 1603.968,1931.804C1602.605,1931.308 1601.423,1930.414 1600.575,1929.238L1588.619,1912.669C1588.015,1911.832 1587.24,1911.132 1586.346,1910.615C1585.452,1910.099 1584.458,1909.778 1583.431,1909.673L1563.104,1907.604C1561.661,1907.457 1560.296,1906.881 1559.186,1905.949C1558.075,1905.017 1557.27,1903.773 1556.875,1902.378L1551.308,1882.719C1551.026,1881.725 1550.538,1880.803 1549.874,1880.011C1549.21,1879.22 1548.386,1878.579 1547.457,1878.129L1529.063,1869.233C1527.758,1868.601 1526.673,1867.593 1525.948,1866.337C1525.223,1865.082 1524.892,1863.637 1524.998,1862.191L1526.49,1841.814C1526.565,1840.784 1526.422,1839.75 1526.068,1838.779C1525.715,1837.809 1525.16,1836.924 1524.441,1836.184L1510.199,1821.532C1509.189,1820.493 1508.514,1819.174 1508.262,1817.746C1508.01,1816.318 1508.193,1814.848 1508.787,1813.526L1517.159,1794.887C1517.582,1793.945 1517.801,1792.924 1517.801,1791.891C1517.801,1790.859 1517.582,1789.838 1517.159,1788.896L1508.787,1770.257C1508.193,1768.935 1508.01,1767.464 1508.262,1766.037C1508.514,1764.609 1509.189,1763.29 1510.199,1762.25L1524.441,1747.599C1525.16,1746.859 1525.715,1745.974 1526.068,1745.004C1526.422,1744.033 1526.565,1742.999 1526.49,1741.969L1524.998,1721.591C1524.892,1720.145 1525.223,1718.701 1525.948,1717.446C1526.673,1716.19 1527.758,1715.181 1529.063,1714.55L1547.457,1705.653C1548.386,1705.204 1549.21,1704.562 1549.874,1703.771C1550.538,1702.98 1551.026,1702.057 1551.308,1701.064L1556.875,1681.405C1557.27,1680.01 1558.075,1678.766 1559.186,1677.834C1560.296,1676.902 1561.661,1676.325 1563.104,1676.179L1583.431,1674.109C1584.458,1674.005 1585.452,1673.684 1586.346,1673.167C1587.24,1672.651 1588.015,1671.951 1588.619,1671.114L1600.575,1654.544C1601.423,1653.369 1602.605,1652.475 1603.968,1651.979C1605.33,1651.483 1606.81,1651.408 1608.215,1651.764L1628.024,1656.772C1629.025,1657.025 1630.069,1657.063 1631.086,1656.884C1632.103,1656.704 1633.07,1656.312 1633.925,1655.731L1650.826,1644.25Z" style="fill:rgb(215,137,58);"/>
                    </g>
                    <g transform="matrix(0.970135,0,0,0.970135,62.15513,62.219403)">
                        <circle cx="2081.181" cy="2083.333" r="1707.667" style="fill:rgb(252,240,216);"/>
                    </g>
                    <g transform="matrix(1.525593,0,0,1.525593,-919.969243,-1685.485565)">
                        <g transform="matrix(2582.685753,0,0,2582.685753,1261,2966)">
                            <path d="M0.462,-0.335L0.451,-0.335C0.448,-0.335 0.443,-0.335 0.437,-0.335C0.43,-0.336 0.423,-0.336 0.414,-0.337C0.404,-0.337 0.393,-0.338 0.379,-0.339C0.378,-0.328 0.376,-0.317 0.375,-0.303C0.374,-0.29 0.373,-0.275 0.373,-0.258C0.372,-0.241 0.371,-0.222 0.371,-0.2C0.37,-0.178 0.37,-0.153 0.37,-0.126C0.37,-0.106 0.371,-0.09 0.374,-0.076C0.376,-0.062 0.379,-0.051 0.384,-0.043C0.389,-0.034 0.396,-0.028 0.404,-0.024C0.412,-0.02 0.421,-0.018 0.433,-0.018C0.456,-0.018 0.477,-0.031 0.494,-0.058L0.509,-0.049C0.504,-0.038 0.498,-0.029 0.49,-0.021C0.482,-0.013 0.474,-0.006 0.465,-0C0.455,0.005 0.446,0.009 0.435,0.012C0.425,0.015 0.415,0.016 0.405,0.016C0.384,0.016 0.367,0.013 0.354,0.008C0.341,0.003 0.33,-0.006 0.322,-0.018C0.314,-0.03 0.309,-0.045 0.306,-0.064C0.302,-0.082 0.301,-0.105 0.301,-0.131C0.301,-0.16 0.301,-0.185 0.302,-0.206C0.302,-0.228 0.303,-0.246 0.304,-0.263C0.305,-0.279 0.306,-0.293 0.307,-0.305C0.308,-0.318 0.309,-0.329 0.31,-0.339L0.198,-0.339L0.19,-0.229C0.189,-0.217 0.188,-0.205 0.186,-0.191C0.184,-0.177 0.182,-0.163 0.18,-0.149C0.178,-0.135 0.175,-0.122 0.173,-0.108C0.17,-0.095 0.168,-0.083 0.165,-0.071C0.162,-0.06 0.159,-0.05 0.157,-0.041C0.154,-0.033 0.152,-0.026 0.149,-0.022C0.142,-0.007 0.134,0.002 0.127,0.007C0.119,0.011 0.112,0.014 0.104,0.014C0.092,0.014 0.082,0.011 0.073,0.006C0.064,0.001 0.06,-0.007 0.06,-0.017C0.06,-0.021 0.06,-0.025 0.061,-0.029C0.062,-0.033 0.063,-0.037 0.065,-0.041C0.067,-0.046 0.07,-0.051 0.073,-0.056C0.077,-0.061 0.082,-0.068 0.089,-0.075C0.098,-0.086 0.106,-0.098 0.113,-0.113C0.12,-0.127 0.125,-0.142 0.13,-0.155C0.132,-0.163 0.135,-0.171 0.137,-0.18C0.14,-0.189 0.142,-0.2 0.145,-0.214C0.147,-0.228 0.15,-0.244 0.152,-0.264C0.155,-0.284 0.157,-0.309 0.159,-0.339L0.14,-0.339C0.129,-0.339 0.119,-0.338 0.111,-0.336C0.102,-0.334 0.094,-0.331 0.086,-0.326C0.078,-0.321 0.07,-0.315 0.063,-0.306C0.056,-0.298 0.047,-0.287 0.039,-0.274L0.021,-0.274C0.031,-0.307 0.043,-0.333 0.059,-0.353C0.067,-0.363 0.075,-0.371 0.082,-0.377C0.09,-0.384 0.098,-0.388 0.107,-0.392C0.116,-0.395 0.126,-0.397 0.137,-0.398C0.149,-0.399 0.163,-0.4 0.179,-0.4L0.526,-0.4C0.512,-0.367 0.501,-0.348 0.495,-0.343C0.489,-0.338 0.478,-0.335 0.462,-0.335Z" style="fill:rgb(215,137,58);fill-rule:nonzero;"/>
                        </g>
                    </g>
                </g>
                <g transform="matrix(1.111111,0,0,1,3780,-191.333333)">
                    <g>
                        <g transform="matrix(2916.666667,0,0,2916.666667,8677,3208)">
                            <path d="M0.304,-0.522C0.336,-0.522 0.365,-0.519 0.392,-0.512C0.419,-0.505 0.44,-0.496 0.457,-0.484C0.473,-0.472 0.481,-0.459 0.481,-0.445C0.481,-0.438 0.478,-0.432 0.474,-0.425C0.469,-0.419 0.463,-0.416 0.455,-0.416C0.447,-0.416 0.44,-0.418 0.435,-0.422C0.43,-0.426 0.425,-0.43 0.42,-0.436C0.415,-0.441 0.408,-0.446 0.399,-0.451C0.39,-0.455 0.378,-0.459 0.362,-0.462C0.346,-0.465 0.327,-0.467 0.307,-0.467C0.27,-0.467 0.236,-0.457 0.206,-0.439C0.176,-0.42 0.153,-0.395 0.135,-0.363C0.118,-0.332 0.109,-0.296 0.109,-0.257C0.109,-0.216 0.117,-0.181 0.134,-0.149C0.15,-0.117 0.173,-0.092 0.203,-0.074C0.232,-0.055 0.267,-0.046 0.305,-0.046C0.332,-0.046 0.353,-0.048 0.368,-0.053C0.382,-0.058 0.395,-0.063 0.406,-0.069C0.418,-0.077 0.428,-0.084 0.433,-0.091C0.439,-0.098 0.447,-0.101 0.456,-0.101C0.464,-0.101 0.471,-0.099 0.475,-0.093C0.48,-0.088 0.482,-0.082 0.482,-0.073C0.482,-0.063 0.474,-0.052 0.459,-0.038C0.443,-0.025 0.422,-0.014 0.394,-0.004C0.367,0.005 0.335,0.01 0.299,0.01C0.25,0.01 0.206,-0.002 0.169,-0.025C0.131,-0.048 0.101,-0.08 0.081,-0.12C0.059,-0.161 0.049,-0.206 0.049,-0.257C0.049,-0.305 0.06,-0.35 0.081,-0.39C0.102,-0.43 0.132,-0.462 0.17,-0.486C0.208,-0.51 0.253,-0.522 0.304,-0.522Z" style="fill:rgb(215,137,58);fill-rule:nonzero;"/>
                        </g>
                        <g transform="matrix(2916.666667,0,0,2916.666667,10187.104167,3208)">
                            <path d="M0.108,-0C0.1,-0 0.092,-0.003 0.087,-0.009C0.081,-0.015 0.079,-0.022 0.079,-0.03L0.079,-0.478C0.079,-0.486 0.081,-0.493 0.087,-0.499C0.093,-0.505 0.1,-0.508 0.108,-0.508C0.117,-0.508 0.125,-0.505 0.13,-0.499C0.136,-0.493 0.139,-0.486 0.139,-0.478L0.139,-0.328L0.124,-0.325C0.126,-0.348 0.132,-0.372 0.141,-0.395C0.151,-0.418 0.164,-0.439 0.181,-0.458C0.197,-0.478 0.217,-0.493 0.24,-0.505C0.263,-0.517 0.289,-0.522 0.318,-0.522C0.33,-0.522 0.341,-0.52 0.353,-0.515C0.364,-0.51 0.37,-0.502 0.37,-0.491C0.37,-0.481 0.367,-0.473 0.362,-0.468C0.356,-0.462 0.35,-0.46 0.343,-0.46C0.337,-0.46 0.33,-0.461 0.323,-0.465C0.316,-0.468 0.307,-0.47 0.296,-0.47C0.277,-0.47 0.258,-0.465 0.24,-0.454C0.221,-0.443 0.204,-0.428 0.189,-0.409C0.173,-0.39 0.161,-0.37 0.152,-0.347C0.143,-0.324 0.139,-0.301 0.139,-0.277L0.139,-0.03C0.139,-0.022 0.136,-0.015 0.13,-0.009C0.124,-0.003 0.117,-0 0.108,-0Z" style="fill:rgb(215,137,58);fill-rule:nonzero;"/>
                        </g>
                        <g transform="matrix(2916.666667,0,0,2916.666667,11308.5625,3208)">
                            <path d="M0.461,-0.508C0.469,-0.508 0.477,-0.505 0.482,-0.499C0.488,-0.493 0.49,-0.486 0.49,-0.478L0.49,-0.196C0.49,-0.13 0.472,-0.079 0.435,-0.045C0.398,-0.01 0.347,0.007 0.284,0.007C0.221,0.007 0.171,-0.01 0.134,-0.045C0.097,-0.079 0.079,-0.13 0.079,-0.196L0.079,-0.478C0.079,-0.486 0.081,-0.493 0.087,-0.499C0.093,-0.505 0.1,-0.508 0.108,-0.508C0.117,-0.508 0.125,-0.505 0.13,-0.499C0.136,-0.493 0.139,-0.486 0.139,-0.478L0.139,-0.196C0.139,-0.148 0.151,-0.111 0.177,-0.086C0.203,-0.061 0.239,-0.049 0.284,-0.049C0.33,-0.049 0.366,-0.061 0.392,-0.086C0.418,-0.111 0.431,-0.148 0.43,-0.196L0.43,-0.478C0.431,-0.486 0.433,-0.493 0.439,-0.499C0.444,-0.505 0.452,-0.508 0.461,-0.508Z" style="fill:rgb(215,137,58);fill-rule:nonzero;"/>
                        </g>
                        <g transform="matrix(2916.666667,0,0,2916.666667,12968.145833,3208)">
                            <path d="M0.05,-0.081C0.045,-0.089 0.042,-0.097 0.043,-0.104C0.043,-0.112 0.047,-0.118 0.055,-0.123C0.06,-0.127 0.066,-0.129 0.073,-0.129C0.081,-0.128 0.087,-0.125 0.093,-0.119C0.111,-0.095 0.133,-0.076 0.158,-0.062C0.184,-0.048 0.214,-0.041 0.25,-0.041C0.269,-0.041 0.287,-0.044 0.306,-0.05C0.324,-0.056 0.339,-0.066 0.351,-0.079C0.363,-0.092 0.369,-0.109 0.369,-0.129C0.369,-0.15 0.363,-0.166 0.351,-0.179C0.339,-0.191 0.323,-0.201 0.304,-0.209C0.285,-0.216 0.265,-0.223 0.243,-0.228C0.221,-0.234 0.199,-0.241 0.178,-0.248C0.157,-0.256 0.138,-0.266 0.121,-0.277C0.105,-0.289 0.092,-0.303 0.082,-0.32C0.072,-0.337 0.067,-0.357 0.067,-0.381C0.067,-0.409 0.075,-0.433 0.09,-0.455C0.105,-0.476 0.126,-0.493 0.152,-0.505C0.179,-0.517 0.208,-0.522 0.241,-0.522C0.259,-0.522 0.277,-0.52 0.296,-0.516C0.315,-0.512 0.334,-0.505 0.353,-0.495C0.371,-0.485 0.388,-0.471 0.403,-0.454C0.409,-0.448 0.412,-0.441 0.412,-0.434C0.412,-0.426 0.409,-0.419 0.402,-0.413C0.396,-0.409 0.39,-0.407 0.383,-0.407C0.376,-0.407 0.371,-0.41 0.366,-0.415C0.35,-0.433 0.331,-0.447 0.309,-0.456C0.287,-0.465 0.263,-0.47 0.238,-0.47C0.219,-0.47 0.201,-0.466 0.183,-0.46C0.166,-0.454 0.152,-0.445 0.141,-0.432C0.13,-0.42 0.124,-0.403 0.124,-0.382C0.125,-0.363 0.132,-0.347 0.144,-0.335C0.156,-0.323 0.173,-0.313 0.193,-0.305C0.214,-0.297 0.237,-0.289 0.262,-0.283C0.284,-0.277 0.304,-0.271 0.323,-0.264C0.343,-0.257 0.36,-0.248 0.375,-0.237C0.39,-0.226 0.402,-0.212 0.411,-0.195C0.42,-0.178 0.424,-0.157 0.424,-0.132C0.424,-0.102 0.416,-0.077 0.4,-0.056C0.384,-0.035 0.362,-0.018 0.335,-0.007C0.308,0.004 0.277,0.01 0.244,0.01C0.208,0.01 0.173,0.003 0.14,-0.011C0.106,-0.025 0.076,-0.048 0.05,-0.081Z" style="fill:rgb(215,137,58);fill-rule:nonzero;"/>
                        </g>
                        <g transform="matrix(2916.666667,0,0,2916.666667,14336.791667,3208)">
                            <path d="M0.045,-0.509L0.279,-0.509C0.287,-0.509 0.293,-0.506 0.299,-0.5C0.304,-0.494 0.307,-0.488 0.307,-0.48C0.307,-0.472 0.304,-0.466 0.299,-0.461C0.293,-0.455 0.287,-0.452 0.279,-0.453L0.045,-0.453C0.038,-0.452 0.031,-0.455 0.026,-0.461C0.02,-0.467 0.017,-0.473 0.017,-0.481C0.017,-0.489 0.02,-0.495 0.026,-0.501C0.031,-0.506 0.038,-0.509 0.045,-0.509ZM0.149,-0.65C0.158,-0.65 0.165,-0.647 0.17,-0.641C0.176,-0.635 0.178,-0.628 0.178,-0.62L0.178,-0.118C0.178,-0.099 0.181,-0.085 0.186,-0.076C0.191,-0.066 0.198,-0.06 0.206,-0.057C0.214,-0.054 0.222,-0.053 0.23,-0.053C0.236,-0.053 0.24,-0.054 0.244,-0.056C0.249,-0.057 0.254,-0.058 0.259,-0.058C0.265,-0.058 0.27,-0.056 0.275,-0.051C0.279,-0.046 0.281,-0.04 0.281,-0.033C0.281,-0.023 0.276,-0.016 0.265,-0.009C0.254,-0.003 0.242,-0 0.227,-0C0.221,-0 0.212,-0 0.2,-0.001C0.188,-0.002 0.175,-0.006 0.163,-0.012C0.15,-0.019 0.14,-0.03 0.131,-0.046C0.123,-0.062 0.119,-0.085 0.119,-0.115L0.119,-0.62C0.119,-0.628 0.121,-0.635 0.127,-0.641C0.133,-0.647 0.14,-0.65 0.149,-0.65Z" style="fill:rgb(215,137,58);fill-rule:nonzero;"/>
                        </g>
                    </g>
                </g>
            </g>
        </g>
    </g>
</svg>
